<svg xmlns="http://www.w3.org/2000/svg" viewBox="0 0 256 256" role="img" aria-labelledby="title desc">
  <title id="title">Uniton Flame Logo</title>
  <desc id="desc">Stylised blue flame with a white core</desc>
  <defs>
    <radialGradient id="outerGradient" cx="50%" cy="30%" r="75%">
      <stop offset="0%" stop-color="#6CD9FF"/>
      <stop offset="40%" stop-color="#3FAEFF"/>
      <stop offset="100%" stop-color="#0A56F0"/>
    </radialGradient>
    <radialGradient id="innerGradient" cx="50%" cy="35%" r="60%">
      <stop offset="0%" stop-color="#FFFFFF"/>
      <stop offset="100%" stop-color="#9CE8FF"/>
    </radialGradient>
  </defs>
  <path fill="url(#outerGradient)" d="M130 12c14 28 47 56 47 97 0 50-41 77-41 107 0 14 9 28 9 40 0 18-14 30-35 30-27 0-50-21-50-51 0-67 70-81 44-168-3 40-52 56-52 104 0 23 13 43 13 61 0 19-15 34-33 34C14 266 0 236 0 210 0 120 90 49 130 12z"/>
  <path fill="url(#innerGradient)" d="M120 64c10 24 33 46 33 77 0 39-29 60-29 87 0 10 6 21 6 30 0 12-9 21-22 21-17 0-30-14-30-34 0-45 52-58 33-120-2 29-35 41-35 74 0 16 9 31 9 44 0 13-10 24-23 24-20 0-33-22-33-45 0-59 60-106 91-158z"/>
</svg>
